M48
; DRILL file {KiCad 9.0.7} date 2026-03-26T14:33:10+0500
; FORMAT={-:-/ absolute / metric / decimal}
; #@! TF.CreationDate,2026-03-26T14:33:10+05:00
; #@! TF.GenerationSoftware,Kicad,Pcbnew,9.0.7
; #@! TF.FileFunction,Plated,1,2,PTH
FMAT,2
METRIC
; #@! TA.AperFunction,Plated,PTH,ViaDrill
T1C0.300
; #@! TA.AperFunction,Plated,PTH,ComponentDrill
T2C0.840
; #@! TA.AperFunction,Plated,PTH,ComponentDrill
T3C0.950
; #@! TA.AperFunction,Plated,PTH,ComponentDrill
T4C1.000
; #@! TA.AperFunction,Plated,PTH,ComponentDrill
T5C1.600
%
G90
G05
T1
X153.65Y-69.0
X153.65Y-69.9
X154.45Y-69.4
X155.15Y-63.85
X156.0Y-63.45
X156.15Y-64.35
X157.15Y-116.8
X158.15Y-117.75
X159.15Y-116.3
X159.75Y-116.9
X163.0Y-66.85
X163.25Y-71.5
X163.55Y-82.35
X163.85Y-84.5
X164.15Y-69.15
X164.2Y-83.0
X164.25Y-67.45
X164.25Y-70.6
X164.75Y-85.5
X165.05Y-69.15
X165.05Y-91.55
X165.05Y-92.65
X165.7Y-126.0
X165.75Y-82.75
X166.6Y-126.9
X167.2Y-91.55
X167.2Y-92.65
X177.9Y-119.3
X178.6Y-118.55
X179.3Y-117.8
T2
X173.37Y-100.52
X173.37Y-85.28
X175.91Y-85.28
X175.91Y-100.52
X178.45Y-85.28
X178.45Y-100.52
X180.99Y-85.28
X180.99Y-100.52
X183.53Y-100.52
X183.53Y-85.28
X186.07Y-85.28
X186.07Y-100.52
X188.61Y-100.52
X188.61Y-85.28
X191.15Y-85.28
X191.15Y-100.52
T3
X116.952Y-107.934
X119.0Y-106.5
X121.048Y-105.066
T4
X116.175Y-69.68
X117.5Y-71.8
X117.677Y-57.611
X121.7Y-78.6
X123.019Y-116.557
X123.025Y-80.72
X125.1Y-115.1
X127.181Y-113.643
X129.523Y-77.325
X129.677Y-50.4
X131.7Y-76.017
X139.346Y-71.423
X141.523Y-70.115
X145.894Y-64.368
X147.2Y-66.5
X155.151Y-74.149
X157.567Y-74.934
X164.797Y-115.497
X166.593Y-117.293
X166.8Y-73.3
X166.8Y-79.3
X170.098Y-120.798
X170.3Y-107.4
X171.894Y-122.594
X172.8Y-73.3
X172.8Y-79.3
X174.1Y-107.4
X174.912Y-66.562
X177.488Y-62.276
X179.0Y-79.3
X186.0Y-79.4
T5
X149.906Y-57.262
X154.09Y-48.289
X166.31Y-64.911
X170.494Y-55.938
M30
