%TF.GenerationSoftware,KiCad,Pcbnew,9.0.7*%
%TF.CreationDate,2026-03-26T14:33:08+05:00*%
%TF.ProjectId,Puck Racer,5075636b-2052-4616-9365-722e6b696361,rev?*%
%TF.SameCoordinates,Original*%
%TF.FileFunction,Soldermask,Top*%
%TF.FilePolarity,Negative*%
%FSLAX46Y46*%
G04 Gerber Fmt 4.6, Leading zero omitted, Abs format (unit mm)*
G04 Created by KiCad (PCBNEW 9.0.7) date 2026-03-26 14:33:08*
%MOMM*%
%LPD*%
G01*
G04 APERTURE LIST*
G04 Aperture macros list*
%AMRoundRect*
0 Rectangle with rounded corners*
0 $1 Rounding radius*
0 $2 $3 $4 $5 $6 $7 $8 $9 X,Y pos of 4 corners*
0 Add a 4 corners polygon primitive as box body*
4,1,4,$2,$3,$4,$5,$6,$7,$8,$9,$2,$3,0*
0 Add four circle primitives for the rounded corners*
1,1,$1+$1,$2,$3*
1,1,$1+$1,$4,$5*
1,1,$1+$1,$6,$7*
1,1,$1+$1,$8,$9*
0 Add four rect primitives between the rounded corners*
20,1,$1+$1,$2,$3,$4,$5,0*
20,1,$1+$1,$4,$5,$6,$7,0*
20,1,$1+$1,$6,$7,$8,$9,0*
20,1,$1+$1,$8,$9,$2,$3,0*%
%AMHorizOval*
0 Thick line with rounded ends*
0 $1 width*
0 $2 $3 position (X,Y) of the first rounded end (center of the circle)*
0 $4 $5 position (X,Y) of the second rounded end (center of the circle)*
0 Add line between two ends*
20,1,$1,$2,$3,$4,$5,0*
0 Add two circle primitives to create the rounded ends*
1,1,$1,$2,$3*
1,1,$1,$4,$5*%
%AMRotRect*
0 Rectangle, with rotation*
0 The origin of the aperture is its center*
0 $1 length*
0 $2 width*
0 $3 Rotation angle, in degrees counterclockwise*
0 Add horizontal line*
21,1,$1,$2,0,0,$3*%
G04 Aperture macros list end*
%ADD10RotRect,1.700000X1.700000X225.000000*%
%ADD11C,1.700000*%
%ADD12R,1.700000X1.700000*%
%ADD13C,1.552000*%
%ADD14RoundRect,0.250000X-0.953988X0.111389X-0.318085X-0.906268X0.953988X-0.111389X0.318085X0.906268X0*%
%ADD15HorizOval,1.700000X-0.127207X-0.079488X0.127207X0.079488X0*%
%ADD16C,2.000000*%
%ADD17RoundRect,0.250000X0.256597X-1.029154X1.029154X0.256597X-0.256597X1.029154X-1.029154X-0.256597X0*%
%ADD18RotRect,3.600000X3.600000X335.000000*%
%ADD19RoundRect,0.250000X0.075648X0.938031X-0.907334X0.249739X-0.075648X-0.938031X0.907334X-0.249739X0*%
%ADD20HorizOval,1.700000X-0.071697X0.102394X0.071697X-0.102394X0*%
%ADD21RotRect,1.700000X1.700000X72.000000*%
%ADD22RoundRect,0.250000X0.952979X-0.119710X0.325981X0.903458X-0.952979X0.119710X-0.325981X-0.903458X0*%
%ADD23HorizOval,1.700000X0.127896X0.078375X-0.127896X-0.078375X0*%
%ADD24RotRect,1.700000X1.700000X125.000000*%
G04 APERTURE END LIST*
D10*
%TO.C,J13*%
X164796878Y-115496878D03*
D11*
X166592929Y-117292930D03*
%TD*%
D10*
%TO.C,J14*%
X170098439Y-120798439D03*
D11*
X171894490Y-122594490D03*
%TD*%
D12*
%TO.C,J11*%
X174100000Y-107400000D03*
%TD*%
D13*
%TO.C,U2*%
X173370000Y-85280001D03*
X175909998Y-85280002D03*
X178450001Y-85280001D03*
X180990000Y-85280001D03*
X186069999Y-85280001D03*
X183530000Y-85280003D03*
X191150000Y-100520002D03*
X191149998Y-85280000D03*
X188609999Y-100520002D03*
X186069999Y-100520000D03*
X183529999Y-100520000D03*
X180990000Y-100519999D03*
X178450001Y-100520002D03*
X175909999Y-100520001D03*
X173369999Y-100520003D03*
X188610002Y-85280000D03*
%TD*%
D12*
%TO.C,J9*%
X170300000Y-107400000D03*
%TD*%
%TO.C,J4*%
X172800000Y-73300000D03*
%TD*%
D14*
%TO.C,J10*%
X121700000Y-78600000D03*
D15*
X123024798Y-80720120D03*
%TD*%
D16*
%TO.C,U3*%
X117676892Y-57610534D03*
X129677234Y-50400000D03*
X129522767Y-77325380D03*
X141523107Y-70114846D03*
X131699971Y-76017181D03*
X139345907Y-71423044D03*
%TD*%
D12*
%TO.C,J2*%
X186000000Y-79400000D03*
%TD*%
D17*
%TO.C,C1*%
X174912405Y-66561565D03*
D16*
X177487595Y-62275728D03*
%TD*%
D18*
%TO.C,U1*%
X149905953Y-57261528D03*
X154089877Y-48289080D03*
X166310123Y-64910920D03*
X170494047Y-55938472D03*
%TD*%
D12*
%TO.C,J1*%
X166800000Y-79300000D03*
%TD*%
%TO.C,J3*%
X166800000Y-73300000D03*
%TD*%
D19*
%TO.C,J12*%
X121047880Y-105066059D03*
D20*
X119000000Y-106500000D03*
X116952120Y-107933941D03*
%TD*%
D21*
%TO.C,J16*%
X157567046Y-74933764D03*
D11*
X155151362Y-74148860D03*
%TD*%
D12*
%TO.C,J8*%
X179000000Y-79300000D03*
%TD*%
%TO.C,J5*%
X172800000Y-79300000D03*
%TD*%
D14*
%TO.C,J6*%
X116175201Y-69679880D03*
D15*
X117500000Y-71800000D03*
%TD*%
D22*
%TO.C,J7*%
X147200000Y-66500000D03*
D23*
X145893754Y-64368400D03*
%TD*%
D24*
%TO.C,J15*%
X127180646Y-113643116D03*
D11*
X125100000Y-115100000D03*
X123019354Y-116556884D03*
%TD*%
M02*
